<?xml version="1.0" encoding="utf-8"?>

<!DOCTYPE svg PUBLIC "-//W3C//DTD SVG 1.1//EN" "http://www.w3.org/Graphics/SVG/1.1/DTD/svg11.dtd">
<!-- Uploaded to: SVG Repo, www.svgrepo.com, Generator: SVG Repo Mixer Tools -->
<svg height="800px" width="800px" version="1.1" id="_x32_" xmlns="http://www.w3.org/2000/svg" xmlns:xlink="http://www.w3.org/1999/xlink" 
	 viewBox="0 0 512 512"  xml:space="preserve">
<style type="text/css">
	.st0{fill:#000000;}
</style>
<g>
	<path class="st0" d="M403.478,256.004c0,16.549,12.028,30.838,28.18,33.735V222.26
		C415.506,225.166,403.478,239.446,403.478,256.004z"/>
	<path class="st0" d="M108.522,256.004c0-16.558-12.028-30.838-28.179-33.744v67.478
		C96.494,286.842,108.522,272.553,108.522,256.004z"/>
	<path class="st0" d="M415.586,164.74c-23.363,23.378-37.795,55.602-37.803,91.264c0.008,35.654,14.44,67.884,37.803,91.256
		c23.371,23.371,55.602,37.795,91.264,37.803H512V126.937h-5.15C471.188,126.937,438.958,141.377,415.586,164.74z M497.202,317.488
		c-1.871,0-63.546-18.476-65.544-18.754c-20.944-2.961-37.055-20.967-37.055-42.73c0-21.763,16.111-39.769,37.055-42.73
		c1.998-0.287,63.673-18.754,65.544-18.754V317.488z"/>
	<path class="st0" d="M96.414,347.26c23.364-23.371,37.796-55.602,37.803-91.256c-0.007-35.662-14.439-67.885-37.803-91.264
		c-23.371-23.363-55.602-37.795-91.263-37.803H0v258.126h5.151C40.812,385.054,73.043,370.631,96.414,347.26z M14.798,194.519
		c1.87,0,63.546,18.468,65.545,18.754c20.943,2.961,37.055,20.968,37.055,42.73c0,21.763-16.112,39.769-37.055,42.73
		c-1.999,0.278-63.674,18.754-65.545,18.754V194.519z"/>
	<path class="st0" d="M9.688,91.068C3.694,97.086,0.008,105.302,0,114.455v0.645h5.151c38.893,0,74.157,15.786,99.638,41.274
		c25.488,25.472,41.266,60.736,41.266,99.63c0,38.886-15.778,74.15-41.266,99.63c-25.481,25.489-60.745,41.266-99.638,41.266H0
		v0.645c0.008,9.163,3.694,17.369,9.688,23.379c6.01,6.002,14.224,9.68,23.379,9.688h217.01V322.312
		c-16.015-1.417-30.44-8.494-41.162-19.224c-12.044-12.035-19.511-28.72-19.503-47.084c-0.008-18.372,7.459-35.057,19.503-47.093
		c10.722-10.73,25.147-17.815,41.162-19.224V81.389H33.067C23.912,81.389,15.698,85.074,9.688,91.068z"/>
	<path class="st0" d="M502.312,91.068c-6.01-5.994-14.225-9.68-23.379-9.68H261.922v108.298c16.016,1.409,30.44,8.494,41.162,19.224
		c12.044,12.036,19.511,28.721,19.503,47.093c0.008,18.364-7.458,35.049-19.503,47.084c-10.722,10.73-25.146,17.807-41.162,19.224
		v108.299h217.011c9.154-0.008,17.369-3.686,23.379-9.688c5.994-6.01,9.68-14.216,9.688-23.379v-0.645h-5.15
		c-38.894,0-74.158-15.777-99.638-41.266c-25.488-25.48-41.266-60.744-41.266-99.63c0-38.894,15.778-74.158,41.266-99.63
		c25.481-25.488,60.745-41.274,99.638-41.274H512v-0.645C511.992,105.302,508.307,97.086,502.312,91.068z"/>
	<path class="st0" d="M310.751,256.004c0-15.14-6.122-28.792-16.032-38.718c-8.622-8.605-20.036-14.344-32.796-15.714v108.856
		c12.761-1.369,24.175-7.108,32.796-15.713C304.629,284.788,310.751,271.136,310.751,256.004z"/>
	<path class="st0" d="M201.25,256.004c0,15.132,6.121,28.784,16.032,38.71c8.621,8.605,20.036,14.344,32.796,15.713V201.572
		c-12.76,1.37-24.175,7.109-32.796,15.714C207.371,227.212,201.25,240.864,201.25,256.004z"/>
</g>
</svg>